<?xml version="1.0" standalone="no"?>
<!DOCTYPE svg PUBLIC "-//W3C//DTD SVG 20010904//EN"
 "http://www.w3.org/TR/2001/REC-SVG-20010904/DTD/svg10.dtd">
<svg version="1.0" xmlns="http://www.w3.org/2000/svg"
 width="512.000000pt" height="512.000000pt" viewBox="0 0 512.000000 512.000000"
 preserveAspectRatio="xMidYMid meet">

<g transform="translate(0.000000,512.000000) scale(0.100000,-0.100000)"
fill="#000000" stroke="none">
<path d="M490 2714 l0 -1096 23 14 c12 8 176 103 365 212 l342 198 0 437 c0
419 1 439 19 455 16 15 23 16 43 5 125 -67 906 -524 916 -536 9 -13 12 -139
12 -549 0 -293 -3 -539 -6 -548 -3 -9 -17 -16 -30 -16 -13 0 -191 97 -395 215
-204 118 -373 215 -376 215 -16 0 -721 -416 -715 -422 13 -12 1867 -1081 1883
-1085 9 -3 442 242 963 543 786 453 945 549 929 557 -10 6 -172 100 -360 209
-189 109 -347 198 -352 198 -5 0 -176 -97 -380 -215 -203 -118 -379 -215 -390
-215 -11 0 -25 9 -31 19 -16 30 -13 1049 3 1080 17 35 912 553 947 549 l25 -3
5 -448 5 -448 360 -208 360 -208 3 1090 c1 600 0 1092 -2 1094 -2 2 -469 -264
-1037 -593 -569 -328 -1038 -597 -1044 -597 -5 0 -475 268 -1043 596 -568 329
-1035 597 -1037 597 -3 0 -5 -493 -5 -1096z"/>
</g>
</svg>
